{
  "source": "C:\\Users\\Peter\\Desktop\\stuff\\MIUN\\quantitative_research\\video_compression\\videos\\BVI-HD\\BVI-HD_CDVL_videos\\ORIG\\TreeGrassFamily_1920x1080_30fps.mp4",
  "output": "C:\\Users\\Peter\\Desktop\\stuff\\MIUN\\quantitative_research\\video_compression\\compressed_videos\\BVI-HD\\vp9\\2.5\\TreeGrassFamily_1920x1080_30fps_vp9.webm",
  "codec": "vp9",
  "ok": "Input #0, mov,mp4,m4a,3gp,3g2,mj2, from 'C:\\Users\\Peter\\Desktop\\stuff\\MIUN\\quantitative_research\\video_compression\\videos\\BVI-HD\\BVI-HD_CDVL_videos\\ORIG\\TreeGrassFamily_1920x1080_30fps.mp4':\n  Metadata:\n    major_brand     : isom\n    minor_version   : 512\n    compatible_brands: isomiso2avc1mp41\n    encoder         : Lavf54.28.101\n  Duration: 00:00:05.00, start: 0.000000, bitrate: 331787 kb/s\n  Stream #0:0[0x1](und): Video: h264 (High 4:4:4 Predictive) (avc1 / 0x31637661), yuv420p(progressive), 1920x1080, 331784 kb/s, 30 fps, 30 tbr, 30 tbn (default)\n    Metadata:\n      handler_name    : VideoHandler\n      vendor_id       : [0][0][0][0]\n[out#0/webm @ 0000013ddc5b0b00] Codec AVOption b:a (set bitrate (in bits/s)) has not been used for any stream. The most likely reason is either wrong type (e.g. a video option with no video streams) or that it is a private option of some decoder which was not actually used for any stream.\nStream mapping:\n  Stream #0:0 -> #0:0 (h264 (native) -> vp9 (libvpx-vp9))\nPress [q] to stop, [?] for help\n[libvpx-vp9 @ 0000013ddd0d00c0] v1.15.2-100-g40561f514\nOutput #0, webm, to 'C:\\Users\\Peter\\Desktop\\stuff\\MIUN\\quantitative_research\\video_compression\\compressed_videos\\BVI-HD\\vp9\\2.5\\TreeGrassFamily_1920x1080_30fps_vp9.webm':\n  Metadata:\n    major_brand     : isom\n    minor_version   : 512\n    compatible_brands: isomiso2avc1mp41\n    encoder         : Lavf62.3.100\n  Stream #0:0(und): Video: vp9, yuv420p(tv, progressive), 1920x1080, q=2-31, 2500 kb/s, 30 fps, 1k tbn (default)\n    Metadata:\n      encoder         : Lavc62.11.100 libvpx-vp9\n      handler_name    : VideoHandler\n      vendor_id       : [0][0][0][0]\n    Side data:\n      cpb: bitrate max/min/avg: 0/0/0 buffer size: 2500000 vbv_delay: N/A\nframe=    0 fps=0.0 q=0.0 size=       0KiB time=N/A bitrate=N/A speed=N/A elapsed=0:00:00.50    \nframe=    2 fps=1.7 q=38.0 size=       1KiB time=00:00:00.06 bitrate=  76.1kbits/s speed=0.0559x elapsed=0:00:01.19    \nframe=    6 fps=3.5 q=56.0 size=       1KiB time=00:00:00.20 bitrate=  25.4kbits/s speed=0.117x elapsed=0:00:01.71    \nframe=   10 fps=4.5 q=58.0 size=       1KiB time=00:00:00.33 bitrate=  15.2kbits/s speed=0.149x elapsed=0:00:02.23    \nframe=   14 fps=5.0 q=59.0 size=       1KiB time=00:00:00.46 bitrate=  10.9kbits/s speed=0.168x elapsed=0:00:02.77    \nframe=   18 fps=5.4 q=60.0 size=       1KiB time=00:00:00.60 bitrate=   8.5kbits/s speed=0.181x elapsed=0:00:03.30    \nframe=   21 fps=5.5 q=39.0 size=       1KiB time=00:00:00.70 bitrate=   7.2kbits/s speed=0.182x elapsed=0:00:03.83    \nframe=   25 fps=5.7 q=59.0 size=       1KiB time=00:00:00.83 bitrate=   6.1kbits/s speed=0.191x elapsed=0:00:04.36    \nframe=   29 fps=5.9 q=59.0 size=       1KiB time=00:00:00.96 bitrate=   5.2kbits/s speed=0.197x elapsed=0:00:04.90    \nframe=   32 fps=5.9 q=59.0 size=       1KiB time=00:00:01.06 bitrate=   4.8kbits/s speed=0.196x elapsed=0:00:05.42    \nframe=   36 fps=6.0 q=60.0 size=       1KiB time=00:00:01.20 bitrate=   4.2kbits/s speed=0.201x elapsed=0:00:05.96    \nframe=   40 fps=6.2 q=60.0 size=       1KiB time=00:00:01.33 bitrate=   3.8kbits/s speed=0.205x elapsed=0:00:06.49    \nframe=   43 fps=6.1 q=58.0 size=       1KiB time=00:00:01.43 bitrate=   3.5kbits/s speed=0.204x elapsed=0:00:07.02    \nframe=   47 fps=6.2 q=59.0 size=       1KiB time=00:00:01.56 bitrate=   3.2kbits/s speed=0.208x elapsed=0:00:07.53    \nframe=   50 fps=6.2 q=62.0 size=       1KiB time=00:00:01.66 bitrate=   3.0kbits/s speed=0.207x elapsed=0:00:08.06    \nframe=   54 fps=6.3 q=61.0 size=       1KiB time=00:00:01.80 bitrate=   2.8kbits/s speed=0.21x elapsed=0:00:08.58    \nframe=   58 fps=6.4 q=61.0 size=       1KiB time=00:00:01.93 bitrate=   2.6kbits/s speed=0.212x elapsed=0:00:09.10    \nframe=   62 fps=6.4 q=60.0 size=       1KiB time=00:00:02.06 bitrate=   2.5kbits/s speed=0.215x elapsed=0:00:09.62    \nframe=   65 fps=6.4 q=60.0 size=       1KiB time=00:00:02.16 bitrate=   2.3kbits/s speed=0.214x elapsed=0:00:10.14    \nframe=   69 fps=6.5 q=60.0 size=       1KiB time=00:00:02.30 bitrate=   2.2kbits/s speed=0.216x elapsed=0:00:10.67    \nframe=   72 fps=6.4 q=60.0 size=       1KiB time=00:00:02.40 bitrate=   2.1kbits/s speed=0.215x elapsed=0:00:11.17    \nframe=   77 fps=6.6 q=60.0 size=       1KiB time=00:00:02.53 bitrate=   2.0kbits/s speed=0.217x elapsed=0:00:11.69    \nframe=   80 fps=6.5 q=61.0 size=       1KiB time=00:00:02.66 bitrate=   1.9kbits/s speed=0.218x elapsed=0:00:12.23    \nframe=   83 fps=6.5 q=59.0 size=       1KiB time=00:00:02.76 bitrate=   1.8kbits/s speed=0.217x elapsed=0:00:12.76    \nframe=   87 fps=6.5 q=60.0 size=       1KiB time=00:00:02.90 bitrate=   1.7kbits/s speed=0.218x elapsed=0:00:13.32    \nframe=   90 fps=6.5 q=62.0 size=       1KiB time=00:00:03.00 bitrate=   1.7kbits/s speed=0.216x elapsed=0:00:13.88    \nframe=   94 fps=6.5 q=62.0 size=       1KiB time=00:00:03.13 bitrate=   1.6kbits/s speed=0.218x elapsed=0:00:14.40    \nframe=   98 fps=6.6 q=62.0 size=       1KiB time=00:00:03.26 bitrate=   1.6kbits/s speed=0.219x elapsed=0:00:14.90    \nframe=  102 fps=6.6 q=61.0 size=       1KiB time=00:00:03.40 bitrate=   1.5kbits/s speed=0.22x elapsed=0:00:15.43    \nframe=  106 fps=6.6 q=62.0 size=       1KiB time=00:00:03.53 bitrate=   1.4kbits/s speed=0.221x elapsed=0:00:15.97    \nframe=  110 fps=6.7 q=62.0 size=       1KiB time=00:00:03.66 bitrate=   1.4kbits/s speed=0.222x elapsed=0:00:16.51    \nframe=  112 fps=6.6 q=61.0 size=       1KiB time=00:00:03.73 bitrate=   1.4kbits/s speed=0.219x elapsed=0:00:17.03    \nframe=  115 fps=6.5 q=60.0 size=       1KiB time=00:00:03.83 bitrate=   1.3kbits/s speed=0.218x elapsed=0:00:17.56    \nframe=  119 fps=6.6 q=61.0 size=       1KiB time=00:00:03.96 bitrate=   1.3kbits/s speed=0.219x elapsed=0:00:18.10    \nframe=  123 fps=6.6 q=59.0 size=       1KiB time=00:00:04.10 bitrate=   1.2kbits/s speed=0.22x elapsed=0:00:18.63    \nframe=  126 fps=6.6 q=63.0 size=       1KiB time=00:00:04.20 bitrate=   1.2kbits/s speed=0.219x elapsed=0:00:19.19    \nframe=  126 fps=6.4 q=63.0 size=       1KiB time=00:00:04.20 bitrate=   1.2kbits/s speed=0.213x elapsed=0:00:19.70    \nframe=  126 fps=6.2 q=63.0 size=       1KiB time=00:00:04.20 bitrate=   1.2kbits/s speed=0.208x elapsed=0:00:20.23    \nframe=  126 fps=6.1 q=63.0 size=       1KiB time=00:00:04.20 bitrate=   1.2kbits/s speed=0.202x elapsed=0:00:20.77    \nframe=  126 fps=5.9 q=63.0 size=       1KiB time=00:00:04.20 bitrate=   1.2kbits/s speed=0.197x elapsed=0:00:21.35    \nframe=  126 fps=5.8 q=63.0 size=       1KiB time=00:00:04.20 bitrate=   1.2kbits/s speed=0.192x elapsed=0:00:21.89    \nframe=  126 fps=5.6 q=63.0 size=       1KiB time=00:00:04.20 bitrate=   1.2kbits/s speed=0.187x elapsed=0:00:22.50    \nframe=  126 fps=5.5 q=63.0 size=       1KiB time=00:00:04.20 bitrate=   1.2kbits/s speed=0.182x elapsed=0:00:23.08    \nframe=  150 fps=6.3 q=61.0 size=    1536KiB time=00:00:04.20 bitrate=2995.9kbits/s speed=0.177x elapsed=0:00:23.67    \n[out#0/webm @ 0000013ddc5b0b00] video:1932KiB audio:0KiB subtitle:0KiB other streams:0KiB global headers:0KiB muxing overhead: 0.089113%\nframe=  150 fps=6.3 q=61.0 Lsize=    1934KiB time=00:00:05.00 bitrate=3168.2kbits/s speed=0.211x elapsed=0:00:23.71    \n",
  "seconds": 24.78589677810669,
  "probe_out": {}
}